PathFileType	4	(X/Y/Z)	/Users/visionmauri/Downloads/Videos/OAW08-top_Sports2D/OAW08-top_Sports2D_px_person00.trc
DataRate	CameraRate	NumFrames	NumMarkers	Units	OrigDataRate	OrigDataStartFrame	OrigNumFrames
30.0	30.0	13	22	m	30.0	1608	2144
Frame#	Time	Hip			RHip			RKnee			RAnkle			RBigToe			RSmallToe			RHeel			LHip			LKnee			LAnkle			LBigToe			LSmallToe			LHeel			Neck			Head			Nose			RShoulder			RElbow			RWrist			LShoulder			LElbow			LWrist			
		X1	Y1	Z1	X2	Y2	Z2	X3	Y3	Z3	X4	Y4	Z4	X5	Y5	Z5	X6	Y6	Z6	X7	Y7	Z7	X8	Y8	Z8	X9	Y9	Z9	X10	Y10	Z10	X11	Y11	Z11	X12	Y12	Z12	X13	Y13	Z13	X14	Y14	Z14	X15	Y15	Z15	X16	Y16	Z16	X17	Y17	Z17	X18	Y18	Z18	X19	Y19	Z19	X20	Y20	Z20	X21	Y21	Z21	X22	Y22	Z22
1608	53.62501166588895	514.9448450058541	612.3711652686094	0.0	502.7109557864315	614.8551016792859	0.0	503.18238858787913	667.2437768412472	0.0	506.6431677396935	716.1633660272552	0.0	502.6866980924968	733.7926272544322	0.0	496.45134454997054	731.6496445353862	0.0	510.74123576111435	724.0043769878002	0.0	528.4087205484843	614.1795718822775	0.0	529.378830817147	662.9389724672875	0.0	528.4473842479972	700.2363402647442	0.0	529.6943094288778	721.6535038491286	0.0	535.6937155733018	719.2121744366023	0.0	526.6065337144192	705.1081786790074	0.0	512.9265988417353	531.966243615075	0.0	513.9858922146582	499.14121245113034	0.0	512.6864501315682	522.3681177559209	0.0	489.3292670559548	541.8550534214407	0.0	478.2027219586069	581.9938994441482	0.0	470.7378011553596	617.0971718906998	0.0	537.0133029954683	540.5661119261845	0.0	548.518396004758	579.2445381948678	0.0	550.6916577267626	612.9353448634238	0.0
1609	53.65836055374086	514.6788969751793	612.5217336742885	0.0	502.51249872296637	615.2666805031879	0.0	502.984437352566	667.8043668445655	0.0	506.512359229324	715.961388351992	0.0	502.64080237184436	733.8133464409684	0.0	496.24515688570193	731.5908473904475	0.0	510.41643290617117	723.8675425671851	0.0	528.2529111882558	614.5694507587905	0.0	529.0375755768189	664.6735681267601	0.0	527.6710056317137	704.0505450264985	0.0	529.7312420041902	724.7983440170398	0.0	535.5019808278965	722.6830556391768	0.0	525.8223413306029	710.029062786294	0.0	512.2949894606834	531.4138301770142	0.0	513.4193917685897	498.53284505710735	0.0	512.4440238997347	521.6019847191599	0.0	488.6171893286082	541.7599720185426	0.0	477.77925218432466	582.371781419336	0.0	470.9860015203876	617.9438328438891	0.0	536.4200796102897	540.4820871737197	0.0	548.0957748314263	579.6950152680422	0.0	550.6431454556347	613.4816573861943	0.0
1610	53.691709441592785	514.3972869521065	612.7036667620337	0.0	502.1739505987995	615.602675252437	0.0	502.65700914160834	668.4161017572993	0.0	506.4755435202388	716.075101872157	0.0	502.40300309392035	733.8110018360409	0.0	496.0493744773029	731.3634622058994	0.0	510.2956854483628	723.9877895969896	0.0	528.0093154023182	614.8918697975888	0.0	528.5215398513369	666.4534830258899	0.0	526.8362861578034	709.1434051667779	0.0	529.262698638395	728.7220448406973	0.0	535.1333938889875	727.0769043561686	0.0	525.1891422749534	716.3835669276012	0.0	511.751406809169	531.0353047736878	0.0	512.7837056245763	496.2346850711025	0.0	512.2121089471729	519.6023594962242	0.0	488.0147946210533	541.8183521340013	0.0	477.3206900085199	582.5139154939284	0.0	471.3381570046712	618.646422892768	0.0	536.0670941123669	540.7288448017564	0.0	547.6070619702385	579.9548171121527	0.0	550.7331169013876	613.8428571797134	0.0
1611	53.72505832944471	514.2172608600124	612.9407099399414	0.0	501.7312472235498	616.0079905171789	0.0	502.35234505487824	669.4299934290866	0.0	506.5757295525371	716.5207668855899	0.0	502.0030356066528	733.8968382690831	0.0	495.76995899857377	731.2298089119066	0.0	510.41856564901207	724.4219300467557	0.0	527.7771552548351	615.3017622910622	0.0	527.958744166157	668.3656922061662	0.0	526.1402125805295	714.2704731951069	0.0	528.2948869461512	732.5565232904795	0.0	534.5989926317847	731.3620768202849	0.0	524.4686717381616	722.2329829472243	0.0	511.59267084978285	530.8583767118066	0.0	512.7390715336757	494.10211202448573	0.0	512.2992895848641	517.5460425149129	0.0	487.6690993986888	541.8072215586642	0.0	477.16310539073646	582.4941105201477	0.0	472.20476310308914	618.627712840969	0.0	535.8853931321263	540.9464187366065	0.0	547.2691491073793	579.9385439135907	0.0	551.2037317364553	614.093899536542	0.0
1612	53.75840721729663	514.1357970305232	613.365109445746	0.0	501.2981806408983	616.6442654751347	0.0	502.2499975466211	670.771869044586	0.0	506.662506932209	717.0809398791895	0.0	501.4849881181377	734.0548912590385	0.0	495.4219587451857	731.2682785383566	0.0	510.44956860473076	724.9413925300156	0.0	527.6861396747764	615.9430316096307	0.0	527.508487730484	670.3280704876114	0.0	525.4781298859945	718.0635003323049	0.0	527.1162094365963	735.7067650036512	0.0	533.9994389587691	734.8403225417101	0.0	523.4043248408029	725.9863662280542	0.0	511.72079318104915	530.4467230397937	0.0	513.1408007507812	493.07599850795225	0.0	512.7781263040106	516.0136176840665	0.0	487.5458990748868	541.8043448539046	0.0	477.26974318988835	582.1307879676272	0.0	473.56944301265446	617.7381105222823	0.0	535.7313139343015	541.1121257198317	0.0	547.1711364543391	579.8138651771015	0.0	551.831017918145	614.160500945062	0.0
1613	53.79175610514855	514.0040644752601	614.0300881081071	0.0	500.87018855655583	617.3847604088312	0.0	502.3693058258774	671.9080335909933	0.0	506.6184193571522	717.407459014365	0.0	501.0006014525697	733.9751928941512	0.0	495.18579062576094	731.346905256561	0.0	510.19901856471364	725.301362646249	0.0	527.6934691745813	616.6746643537344	0.0	527.1482298970483	671.9799183071665	0.0	524.7723717036926	720.1329363225234	0.0	526.0699766077836	737.8702183806826	0.0	533.4857255043885	737.1415997590086	0.0	522.2973321851792	727.9158181250319	0.0	511.88339295271015	529.8704350416568	0.0	513.4342381627853	492.67352010196805	0.0	513.2619118542606	515.2579415560302	0.0	487.5227916246018	542.0750655746752	0.0	477.3149256672158	581.4641102468192	0.0	474.951068945351	616.5591352768865	0.0	535.7306703245131	541.4149492412178	0.0	547.2895157790649	579.9531749433041	0.0	552.2462862933199	614.251627182536	0.0
1614	53.82510499300047	513.8872817891101	614.8152679561931	0.0	500.55446302636295	617.9591045830947	0.0	502.5301108277481	672.385080924155	0.0	506.5095181615564	717.3714632351941	0.0	500.74619024486395	733.5345551980349	0.0	495.0952435650614	731.3345369259965	0.0	509.73012700563476	725.5894670260607	0.0	527.6720505773368	617.2456037506969	0.0	526.7010082136377	672.972922278164	0.0	524.2682923416849	720.9780893161796	0.0	524.9958994256946	738.8911753938675	0.0	532.8215607281803	738.1697603994428	0.0	521.8590251265751	729.234928674024	0.0	511.99717122486237	530.2042317742477	0.0	513.6298556195252	493.42305218939543	0.0	513.5038920525047	516.5346502551868	0.0	487.5496593792311	542.5698415558812	0.0	477.24159318446885	581.1816846282566	0.0	476.0361120773572	616.0186475681484	0.0	535.988535936973	541.7889531300241	0.0	547.6346284124712	580.5539980467238	0.0	552.6231250972219	614.7662971339003	0.0
1615	53.858453880852394	513.9668271566449	615.5785836098557	0.0	500.5483588717334	618.3130314330689	0.0	502.5837726113627	672.2283038597741	0.0	506.4506884347244	716.9437581078411	0.0	500.671111012043	733.1101449505876	0.0	495.0121471431322	731.189840827078	0.0	509.30759109172845	725.8296870595998	0.0	527.5583723823696	617.605923143093	0.0	526.092554700639	673.2685991300215	0.0	524.1604387028193	721.2681423370086	0.0	523.413553609968	739.0740314010365	0.0	531.5648025494272	738.4171003441562	0.0	522.3422227608628	730.3724233309724	0.0	512.1268136092327	532.1257537214104	0.0	514.0464897716055	496.46489261612714	0.0	513.6868492756456	520.3788747338546	0.0	487.6493244362788	543.1434574242707	0.0	477.22792510587436	581.6930079433336	0.0	476.89926242279813	616.3591833958051	0.0	536.2908215751102	542.1593185447875	0.0	548.1740458961792	581.4573301134591	0.0	553.2478680094089	615.828263384003	0.0
1616	53.891802768704316	514.195033737306	616.2514123700751	0.0	500.7841744348216	618.6649470641695	0.0	502.55512822926573	671.8961722201609	0.0	506.375827021119	716.2683399283966	0.0	500.52447575917734	733.0898641736925	0.0	494.89268936175563	730.9742829706257	0.0	509.10700226321984	725.7564642216746	0.0	527.4359115773414	617.8996674816568	0.0	525.5238487303327	673.2151671454467	0.0	524.1098489582525	721.5577634853761	0.0	521.4509389037333	739.3587681819548	0.0	529.8212444409987	738.8776155283571	0.0	522.9796466979163	731.0247227744861	0.0	512.3191450023579	534.5466110319757	0.0	514.5051305369552	499.974572396312	0.0	513.9780166538903	524.1170604980363	0.0	487.87220255067473	543.8703521784645	0.0	477.28921187660836	582.41280388928	0.0	477.63572811117314	616.9358364853259	0.0	536.4684585230548	542.8369802133492	0.0	548.7737329855802	582.4377966294371	0.0	553.9852067519757	617.2583289359765	0.0
1617	53.92515165655623	514.4096623966258	616.871719253123	0.0	501.0407519502381	619.2489176313567	0.0	502.5769931443903	671.7916689954081	0.0	506.1814443326451	715.8565750653948	0.0	500.2467910091266	733.4482680942715	0.0	494.801502908325	730.883263449225	0.0	508.91033108518	725.3826065062285	0.0	527.4704924503552	618.3144052470822	0.0	525.2496287611799	673.3474796640187	0.0	523.6019022902358	722.2882730130257	0.0	519.9283698906097	740.6965988485947	0.0	528.316406512876	740.2581854718798	0.0	522.7109890936308	731.3292763703695	0.0	512.6741311511756	535.9178431038746	0.0	514.6865280001367	500.7870236761415	0.0	514.334693838031	524.9076519377692	0.0	488.2682693038972	544.7624941620559	0.0	477.3566622909728	582.6491897553285	0.0	478.18555495670194	617.2307176314611	0.0	536.7458245912719	544.0790066362359	0.0	549.2732706431983	583.4527602292446	0.0	554.6979827502962	618.8327357305209	0.0
1618	53.95850054440815	514.6235895422088	617.658557729994	0.0	501.33446936195276	620.0656482404092	0.0	502.7011108122953	671.8005376158093	0.0	505.8587305009869	716.0016539326397	0.0	499.99743188279234	733.9697307020053	0.0	494.65328084888586	731.0997784855743	0.0	508.3856236172903	724.9979826352887	0.0	527.7168530518301	619.0008904414324	0.0	525.303928633276	673.9696978807413	0.0	522.7361050203442	723.6210682306125	0.0	519.4151790589466	743.187692191991	0.0	527.6235282207841	742.4394103365707	0.0	521.5089415815123	731.9803848360546	0.0	513.4095732765178	536.3078143350527	0.0	514.9801531866538	499.85057669252285	0.0	514.8508952266222	524.4199411905746	0.0	488.8420452189796	545.6755169215712	0.0	477.5754503452952	582.630539658788	0.0	478.4461932902051	617.5520211958452	0.0	537.4401843029117	545.6403746384232	0.0	549.7034825002047	584.5827330558778	0.0	555.5836762991477	620.3468274259482	0.0
1619	53.991849432260075	514.975302385691	618.7547791212057	0.0	501.8137842038345	620.9377914902796	0.0	502.82062707556673	671.6109665152616	0.0	505.365785673144	716.0828156783238	0.0	499.8799476026946	734.3966695866568	0.0	494.23952816981216	731.3880303445046	0.0	507.5123131164967	724.3368933603275	0.0	528.0547057354174	619.9848739379788	0.0	525.5863835229928	674.883456184377	0.0	522.0959237233036	725.3027272740352	0.0	519.7405241858355	745.9174587442882	0.0	527.7123229519348	744.699321129061	0.0	520.3110992374976	733.1957906321213	0.0	514.484530667232	536.7356031708108	0.0	515.9456292858569	500.56020479816124	0.0	515.7268370309429	525.8729908597629	0.0	489.5369227187093	546.5062309841986	0.0	478.14426090440855	583.0475669069475	0.0	478.45259817050714	618.3339879454854	0.0	538.497761777589	547.0383724089214	0.0	550.278949939613	585.8140050836973	0.0	556.7556080771848	621.5123176150029	0.0
1620	54.025198320112	515.4732559572069	619.8517120396615	0.0	502.37909213922995	621.7058023180164	0.0	502.8543892260388	671.1842112439472	0.0	504.78310768333927	714.9812064903143	0.0	499.8671590055153	734.2824484105338	0.0	493.6532018309776	731.0220032276325	0.0	506.59606783596143	722.5679963853247	0.0	528.410706784977	621.1024944806392	0.0	525.9404034763713	675.692946693474	0.0	521.878633281456	726.8678843528727	0.0	520.2725816832425	747.7899783449266	0.0	528.1446973440874	746.287308597036	0.0	519.6954401381843	734.4864678199459	0.0	515.5320671057218	537.4977687487805	0.0	517.2806191228359	502.80056232126043	0.0	516.830518884916	528.4548002320875	0.0	490.2276837042925	547.1186276052963	0.0	478.9879326694276	584.0234178344175	0.0	478.3528174836769	619.3178134609763	0.0	539.5622457635519	547.9122663819988	0.0	551.0582481224981	586.9358676976741	0.0	557.9538549261707	622.3129580768812	0.0
